<?xml version="1.0" encoding="UTF-8"?>
<!DOCTYPE svg PUBLIC "-//W3C//DTD SVG 1.1//EN" "http://www.w3.org/Graphics/SVG/1.1/DTD/svg11.dtd">
<!-- Creator: CorelDRAW 2020 (64 Bit) -->
<svg xmlns="http://www.w3.org/2000/svg" xml:space="preserve" width="250px" height="250px" version="1.1" shape-rendering="geometricPrecision" text-rendering="geometricPrecision" image-rendering="optimizeQuality" fill-rule="evenodd" clip-rule="evenodd"
viewBox="0 0 67.23 67.23"
 xmlns:xlink="http://www.w3.org/1999/xlink"
 xmlns:xodm="http://www.corel.com/coreldraw/odm/2003">
 <g id="Camada_x0020_1">
  <metadata id="CorelCorpID_0Corel-Layer"/>
  <g id="_2581585823408">
   <polygon fill="#F27281" points="0,67.23 19.83,67.23 19.83,47.4 0,47.4 "/>
   <polygon fill="#FF9000" points="33.62,47.4 35.58,47.4 35.61,55.28 39.52,55.28 39.52,59.22 33.62,59.22 33.62,67.23 47.4,67.23 47.4,51.34 47.4,39.52 33.62,39.52 "/>
   <polygon fill="#FDBF00" points="19.83,47.4 19.83,67.23 33.62,67.23 33.62,59.22 27.7,59.22 27.7,55.28 31.64,55.28 31.64,51.34 27.7,51.34 27.7,47.4 33.62,47.4 33.62,39.52 19.83,39.52 "/>
   <polygon fill="#737DE6" points="47.4,67.23 67.23,67.23 67.23,51.34 47.4,51.34 "/>
   <path fill="#FDBF00" d="M33.62 31.65l1.96 0c0,-1.53 -0.12,-3 0.35,-4.12 0.89,-2.08 3.23,-4.59 4.73,-6.43 0.36,-0.45 0.61,-0.87 0.96,-1.27 0.23,-0.6 0.75,-1.27 1.05,-1.98 0.29,-0.69 0.61,-1.5 0.67,-2.36 0.34,-0.77 0.11,-6.21 0.12,-7.61l0 -3.94 0 -3.94 -9.84 0 0 31.65z"/>
   <path fill="#FFD92B" d="M23.76 3.94l0 3.94c0.02,1.39 -0.21,6.87 0.13,7.61 0.41,2.2 0.95,2.69 1.78,4.34 0.44,0.84 3.72,4.52 4.86,6.23 1.31,1.95 1.11,3.09 1.11,5.59l1.98 0 0 -31.65 -9.85 0 -0.01 3.94z"/>
   <path fill="#FDBF00" d="M8.67 24.82l-6.23 0.86c-0.74,0.11 -1.53,0.26 -2.18,0.32 0.41,0.61 2.96,2.89 3.97,3.9l1.45 1.31c0.97,0.94 0.59,0.87 0.04,4.18 -0.14,0.85 -0.25,1.4 -0.39,2.24 -0.14,0.8 -0.34,1.59 -0.34,2.42 0.72,-0.17 7.01,-3.75 7.35,-3.75l7.35 3.75c0,-0.91 -0.52,-3.44 -0.71,-4.54 -0.14,-0.83 -0.23,-1.44 -0.37,-2.26 -0.24,-1.36 -0.79,-1.04 1.64,-3.28 1.22,-1.13 3.21,-2.73 4.04,-3.97 -0.62,-0.05 -1.36,-0.2 -2.06,-0.3l-6.21 -0.88c-0.29,-1.24 -3.18,-5.92 -3.55,-7.49 -0.46,0.34 -3.73,7.19 -3.8,7.49z"/>
   <path fill="#FF9000" d="M51.21 24.82l-8.28 1.18c0.92,1.36 2.74,2.71 3.98,3.9 2.53,2.44 2.04,1.36 1.35,5.49 -0.18,1.1 -0.73,3.74 -0.73,4.66 0.72,-0.17 7.01,-3.75 7.35,-3.75 0.36,0 6.68,3.59 7.36,3.75 0,-0.77 -0.89,-5.66 -1.09,-6.8 -0.37,-2.07 -0.49,-0.99 1.71,-3.21 1.01,-1.03 3.7,-3.44 4.1,-4.04l-8.4 -1.18c-0.17,-0.74 -1.38,-2.9 -1.79,-3.72 -0.37,-0.73 -1.7,-3.11 -1.76,-3.77l-0.26 0c-0.08,1.02 -3.26,6.27 -3.54,7.49z"/>
   <path fill="#FDBF00" d="M25.67 19.83c-0.83,-1.65 -1.37,-2.14 -1.78,-4.34 -1.26,-0.29 -2.59,-1.54 -3.19,-2.58 -0.88,-1.52 -0.87,-2.73 -0.87,-5.03l3.93 0 0 -3.94 -7.87 0c0,2.1 0,4.2 -0.01,6.3 -0.01,2.96 1.65,5.7 3.72,7.45 0.3,0.25 0.7,0.48 1.01,0.69 1.27,0.85 2.93,1.45 5.06,1.45z"/>
   <path fill="#FF9000" d="M43.46 7.88l3.94 0c0,2.29 0.02,3.4 -0.83,4.95 -0.59,1.07 -1.94,2.35 -3.23,2.66 -0.06,0.86 -0.38,1.67 -0.67,2.36 -0.3,0.71 -0.82,1.38 -1.05,1.98 5.52,0 9.72,-4.91 9.72,-9.45 0,-2.15 0,-4.29 0,-6.44l-7.88 0 0 3.94z"/>
   <polygon fill="#596C75" points="33.62,59.22 33.62,47.4 27.7,47.4 27.7,51.34 31.64,51.34 31.64,55.28 27.7,55.28 27.7,59.22 "/>
   <polygon fill="#465A61" points="33.62,59.22 39.52,59.22 39.52,55.28 35.61,55.28 35.58,47.4 33.62,47.4 "/>
   <polygon fill="#FDBF00" points="33.62,35.58 33.62,31.65 31.64,31.65 27.7,31.64 27.7,35.58 "/>
   <polygon fill="#FF9000" points="33.62,35.58 39.52,35.58 39.52,31.64 35.58,31.65 33.62,31.65 "/>
  </g>
 </g>
</svg>
