<svg id="Layer_1" height="512" viewBox="0 0 512 512" width="512" xmlns="http://www.w3.org/2000/svg" data-name="Layer 1"><g fill="#fedb41"><path d="m453.92 248.76a22.085 22.085 0 1 1 6.47 15.61 22.012 22.012 0 0 1 -6.47-15.61z"/><path d="m448.96 142.5a22.08 22.08 0 1 1 6.47 15.61 22.012 22.012 0 0 1 -6.47-15.61z"/><path d="m448.96 363.83a22.08 22.08 0 1 1 6.47 15.61 22.012 22.012 0 0 1 -6.47-15.61z"/><path d="m366.1 426.4a22.07 22.07 0 1 1 -15.61 6.46 22 22 0 0 1 15.61-6.46z"/></g><path d="m353.07 196.29a107.631 107.631 0 0 1 -93.23 154.07c-1.27.06-2.55.08-3.84.08a107.551 107.551 0 1 1 97.07-154.15zm-25.31 46.53a71.76 71.76 0 1 0 -71.76 71.76 71.763 71.763 0 0 0 71.76-71.76z" fill="#00acea"/><path d="m342.66 123.15v55.71l-.07.05a107.919 107.919 0 0 0 -24.91-24.28l.02-.03v-31.45a61.7 61.7 0 0 0 -123.4 0v31.45l.02.03a107.919 107.919 0 0 0 -24.91 24.28l-.07-.05v-55.71a86.66 86.66 0 0 1 173.32 0z" fill="#00efd1"/><path d="m256 171.06a71.76 71.76 0 1 1 -71.76 71.76 71.763 71.763 0 0 1 71.76-71.76zm12.19 71.18a12.19 12.19 0 1 0 -12.19 12.2 12.187 12.187 0 0 0 12.19-12.2z" fill="#00efd1"/><path d="m259.84 431.36a22.07 22.07 0 1 1 -15.61 6.46 22 22 0 0 1 15.61-6.46z" fill="#fedb41"/><path d="m256 230.05a12.2 12.2 0 1 1 -12.19 12.19 12.187 12.187 0 0 1 12.19-12.19z" fill="#00acea"/><path d="m144.77 426.4a22.07 22.07 0 1 1 -15.61 6.46 22 22 0 0 1 15.61-6.46z" fill="#fedb41"/><path d="m63.04 142.5a22.08 22.08 0 1 1 -6.47-15.61 22.012 22.012 0 0 1 6.47 15.61z" fill="#fedb41"/><path d="m63.04 363.83a22.08 22.08 0 1 1 -6.47-15.61 22.012 22.012 0 0 1 6.47 15.61z" fill="#fedb41"/><path d="m58.08 248.76a22.085 22.085 0 1 1 -6.47-15.61 22.029 22.029 0 0 1 6.47 15.61z" fill="#fedb41"/><path d="m256 165.06a77.76 77.76 0 1 0 77.76 77.76 77.848 77.848 0 0 0 -77.76-77.76zm0 143.52a65.76 65.76 0 1 1 65.76-65.76 65.835 65.835 0 0 1 -65.76 65.76z" fill="#083863"/><path d="m256 224.05a18.18 18.18 0 0 0 -8 34.51v12.44a6 6 0 0 0 12 0v-11.018a18.188 18.188 0 0 0 -4-35.932zm0 24.39a6.2 6.2 0 1 1 6.19-6.2 6.2 6.2 0 0 1 -6.19 6.2z" fill="#083863"/><path d="m448.567 255a28.428 28.428 0 0 0 7.579 13.732v-.057a28.17 28.17 0 1 0 0-39.645 29.155 29.155 0 0 0 -7.579 13.97h-78.948a116.134 116.134 0 0 0 -7.438-41h33.609a27.038 27.038 0 0 0 27.21-27.21v-10.8c0-8.541 7.239-14.99 15.78-14.99h4.827a28.232 28.232 0 1 0 7.58-26.094 25.592 25.592 0 0 0 -7.58 14.094h-4.827c-15.158 0-27.78 11.832-27.78 26.99v10.8a15.026 15.026 0 0 1 -15.21 15.21h-39.025c-2.4-4-4.765-8.741-7.765-12.934v-53.916c0-51.093-41.907-92.66-93-92.66s-93 41.567-93 92.66v53.915c-3 4.2-5.361 8.935-7.765 12.935h-39.025a15.026 15.026 0 0 1 -15.21-15.21v-10.8c0-15.158-12.622-26.99-27.78-26.99h-4.827a25.616 25.616 0 0 0 -7.581-14.1 28.107 28.107 0 0 0 -39.7-.127 28 28 0 0 0 19.848 47.805 27.742 27.742 0 0 0 19.853-7.968 28.055 28.055 0 0 0 7.58-13.61h4.827c8.541 0 15.78 6.449 15.78 14.99v10.8a27.038 27.038 0 0 0 27.21 27.21h33.609a116.134 116.134 0 0 0 -7.438 41h-78.948a29.162 29.162 0 0 0 -7.58-13.973 28 28 0 1 0 0 39.592v.115a28.434 28.434 0 0 0 7.58-13.734h79.583a119.857 119.857 0 0 0 15.718 47h-42.524a26.9 26.9 0 0 0 -27.21 27.04v13.3a15.9 15.9 0 0 1 -15.78 15.66h-4.827a29.043 29.043 0 0 0 -7.581-13.938 27.982 27.982 0 1 0 0 39.708 28.537 28.537 0 0 0 7.581-13.77h4.827a27.916 27.916 0 0 0 27.78-27.66v-13.3a14.888 14.888 0 0 1 15.21-15.04h50.91c7.895 9 16.88 17.9 27.88 24.677v34.543a15.716 15.716 0 0 1 -15.44 15.78h-13.3a27.083 27.083 0 0 0 -27.26 27.21v4.836a29.121 29.121 0 0 0 -13.967 7.571 28.04 28.04 0 1 0 39.712 0 28.436 28.436 0 0 0 -13.745-7.571v-4.836a15.072 15.072 0 0 1 15.26-15.21h13.3c15.158 0 27.44-12.622 27.44-27.78v-27.861a117.176 117.176 0 0 0 47 11.041v69.6a29.014 29.014 0 0 0 -13.933 7.572h-.039a28.063 28.063 0 1 0 47.9 19.853 27.8 27.8 0 0 0 -8.151-19.853 28.535 28.535 0 0 0 -13.777-7.566v-70.006a109.054 109.054 0 0 0 40-11.255v28.475a28.037 28.037 0 0 0 27.8 27.78h10.81a15.182 15.182 0 0 1 15.39 15.21v4.836a28.616 28.616 0 0 0 -13.8 7.571 28.091 28.091 0 1 0 39.7 0 28.908 28.908 0 0 0 -13.9-7.572v-4.835a27.194 27.194 0 0 0 -27.39-27.21h-10.81a16.026 16.026 0 0 1 -15.8-15.78v-35.345a127.721 127.721 0 0 0 26.919-23.875h50.871a14.888 14.888 0 0 1 15.21 15.04v13.3a27.916 27.916 0 0 0 27.78 27.66h4.827a28.529 28.529 0 0 0 7.581 13.768 28.1 28.1 0 1 0 0-39.7 29.034 29.034 0 0 0 -7.581 13.932h-4.827a15.9 15.9 0 0 1 -15.78-15.66v-13.3a26.9 26.9 0 0 0 -27.21-27.04h-42.524a119.841 119.841 0 0 0 15.718-47zm16.065-17.607a16.067 16.067 0 1 1 -4.712 11.367 15.98 15.98 0 0 1 4.712-11.367zm-4.96-106.26a16.076 16.076 0 1 1 22.738 22.732 16.076 16.076 0 1 1 -22.736-22.734zm-407.344 22.734a16.094 16.094 0 0 1 -22.736 0 16.08 16.08 0 1 1 22.738 0zm-4.958 106.258a16.067 16.067 0 1 1 4.71-11.365 16.117 16.117 0 0 1 -4.71 11.365zm4.958 115.075a16.067 16.067 0 1 1 4.712-11.37 16.1 16.1 0 0 1 -4.712 11.37zm103.81 61.9a16.091 16.091 0 1 1 -11.368-4.7 16.095 16.095 0 0 1 11.368 4.7zm221.33 22.734a16.07 16.07 0 1 1 0-22.734 16.1 16.1 0 0 1 0 22.737zm82.2-107.374a16.067 16.067 0 1 1 -4.712 11.367 16.026 16.026 0 0 1 4.716-11.364zm-203.668-309.97c44.477 0 81 36.184 81 80.66v39.68c-4-4.06-9-7.812-13-11.232v-28.448c0-37.33-30.67-67.7-68-67.7s-68 30.37-68 67.7v28.45c-4 3.421-9 7.174-13 11.232v-39.682c0-44.476 36.523-80.66 81-80.66zm56 101.3a114.752 114.752 0 0 0 -112 0v-20.64c0-30.713 25.287-55.7 56-55.7s56 24.987 56 55.7zm-36.077 309.64a16.079 16.079 0 1 1 -27.45-11.368 16.083 16.083 0 0 1 27.449 11.368zm61.266-149.492a101.164 101.164 0 0 1 -77.632 40.429c-1.044.049-2.207.073-3.557.073a101.615 101.615 0 1 1 81.189-40.5z" fill="#083863"/></svg>