<?xml version="1.0" encoding="UTF-8"?>
<!DOCTYPE svg PUBLIC "-//W3C//DTD SVG 1.1//EN" "http://www.w3.org/Graphics/SVG/1.1/DTD/svg11.dtd">
<!-- Creator: CorelDRAW 2020 (64 Bit) -->
<svg xmlns="http://www.w3.org/2000/svg" xml:space="preserve" width="578px" height="71px" version="1.1" shape-rendering="geometricPrecision" text-rendering="geometricPrecision" image-rendering="optimizeQuality" fill-rule="evenodd" clip-rule="evenodd"
viewBox="0 0 461.31 56.59"
 xmlns:xlink="http://www.w3.org/1999/xlink"
 xmlns:xodm="http://www.corel.com/coreldraw/odm/2003">
 <g id="Camada_x0020_1">
  <metadata id="CorelCorpID_0Corel-Layer"/>
  <polygon fill="#006CB5" fill-rule="nonzero" points="164.88,15.84 161.23,22.59 155.85,32.56 161.23,32.56 166.61,32.56 165.04,15.84 "/>
  <path fill="#006CB5" fill-rule="nonzero" d="M196.68 48.23l-11.15 0 8.56 -40.25 11.15 0 -8.56 40.25zm24.77 -48.23l-221.45 0 0 7.96 11.4 0 0 1.5 -11.4 0 0 8.2 11.4 0 0 1.49 -11.4 0 0 8.21 11.4 0 0 1.49 -11.4 0 0 8.2 11.4 0 0 1.5 -11.4 0 0 8.2 11.4 0 0 1.5 -11.4 0 0 8.28 221.45 0 0 -8.28 -11.4 0 0 -1.5 11.4 0 0 -8.2 -11.4 0 0 -1.5 11.4 0 0 -8.2 -11.4 0 0 -1.49 11.4 0 0 -8.21 -11.4 0 0 -1.49 11.4 0 0 -8.2 -11.4 0 0 -1.5 11.4 0 0 -7.96zm-52.76 48.23l-1 -7.86 -6.46 0 -9.88 0 -4.29 7.86 -8.94 0 -2.21 0 2.21 -3.65 22.24 -36.6 0.87 0 12.73 0 7.33 40.25 -12.6 0zm-52.35 0l-7.11 -30.83 -0.11 0 -6.55 30.83 -8.91 0 -1.13 0 1.13 -5.31 7.43 -34.94 15.61 0 7.12 29.99 0.13 -0.11 6.35 -29.88 7.82 0 2.22 0 -2.22 10.42 -6.34 29.83 -15.44 0zm-28.2 -16.34l-17.95 0 -1.82 8.54 19.52 0 -1.66 7.8 -30.67 0 8.56 -40.25 29.54 0 1.13 0 -1.13 5.3 -0.54 2.5 -19.51 0 -1.77 8.31 17.96 0 -1.66 7.8zm-34.17 -12.1l-11.15 0c0.38,-1.56 0.13,-2.74 -0.7,-3.57 -0.76,-0.83 -2.13,-1.28 -4.02,-1.28 -2.56,0 -5.15,1.67 -5.57,3.68 -0.63,2.95 2.74,3.9 5.52,4.69 6.39,1.73 16.05,2.39 13.74,13.26 -1.8,8.48 -11.01,12.5 -20.33,12.5 -9.36,0 -17.04,-2.73 -14.89,-13.66l11.16 0c-0.86,3.78 1.49,5.85 5.5,5.85 2.57,0 6.14,-1.34 6.71,-4.02 1.16,-5.46 -7.34,-4.29 -15.28,-8.14 -3.69,-1.78 -4.9,-5.46 -3.99,-9.81 2.48,-9.53 11.4,-12.16 19.82,-12.16 8.31,0 16.21,2.96 13.48,12.66z"/>
  <path fill="#006CB5" fill-rule="nonzero" d="M444.75 20.31l-11.29 0c0.22,-4.17 -2.78,-5.34 -5.84,-5.34 -7.62,0 -11.85,6.68 -13.24,13.42 -2,9.41 2.34,13.36 9.07,13.36 2.06,0 4.17,-0.28 6.28,-0.67l1.67 -7.79 -8.51 0 1.62 -7.63 18.96 0 -4.56 21.49c-6.12,1.39 -12.24,2.23 -18.19,2.23 -4.34,0 -10.23,-0.67 -14.12,-4.18 -4.35,-3.84 -5.35,-10.18 -3.96,-16.59 1.01,-4.84 3.9,-11.58 9.4,-15.98 5.73,-4.51 12.91,-5.34 17.75,-5.34 6.28,0 11.18,1.33 13.68,4.67 2.29,3.07 1.62,6.41 1.28,8.35zm-204.58 36.28l221.14 0 0 -8.12 -11.4 0 0 -1.49 11.4 0 0 -8.21 -11.4 0 0 -1.49 11.4 0 0 -8.2 -11.4 0 0 -1.49 11.4 0 0 -8.21 -11.4 0 0 -1.49 11.4 0 0 -8.2 -11.4 0 0 -1.5 11.4 0 0 -8.19 -221.14 0 0 8.19 11.4 0 0 1.5 -11.4 0 0 8.2 11.4 0 0 1.49 -11.4 0 0 8.21 11.4 0 0 1.49 -11.4 0 0 8.2 11.4 0 0 1.49 -11.4 0 0 8.21 11.4 0 0 1.49 -11.4 0 0 8.12zm152.37 -8.13l-10.51 0 7.67 -33.74 -16.68 33.74 -10.01 0 -1.95 -34.02 -6.96 34.02 -9.62 0 8.51 -40.2 17.53 0 0.94 27.23 12.07 -27.23 17.52 -0.05 -8.51 40.25zm-51.99 -16.45l-18.02 0 -1.78 8.57 19.58 0 -1.67 7.8 -30.6 0 8.51 -40.09 30.15 0 -1.61 7.68 -19.13 0 -1.78 8.35 18.02 0 -1.67 7.69zm-51.15 16.42l8.51 -40.2 11.45 0 -8.5 40.2 -11.46 0zm-2.6 -15.31l-16.13 0 -3.23 15.26 -11.06 0 8.5 -40.09 28.43 0 -1.67 7.74 -17.35 0 -1.95 9.35 16.13 0 -1.67 7.74z"/>
 </g>
</svg>
